HIERARCHY
ROOT Hips
{
  OFFSET 267.745 86.9975 -272.335
  CHANNELS 6 Xposition Yposition Zposition Zrotation Xrotation Yrotation
  JOINT LeftUpLeg
  {
    OFFSET 8.64259 1.95398 -2.38835
    CHANNELS 3 Zrotation Xrotation Yrotation
    JOINT LeftLeg
    {
      OFFSET 43.7702 0 0
      CHANNELS 3 Zrotation Xrotation Yrotation
      JOINT LeftFoot
      {
        OFFSET 40.6238 0 0
        CHANNELS 3 Zrotation Xrotation Yrotation
        JOINT LeftToeBase
        {
          OFFSET 12.7242 0 0
          CHANNELS 3 Zrotation Xrotation Yrotation
          End Site
          {
            OFFSET 0 0 0
          }
        }
      }
    }
  }
  JOINT RightUpLeg
  {
    OFFSET -8.2249 1.95398 -2.59336
    CHANNELS 3 Zrotation Xrotation Yrotation
    JOINT RightLeg
    {
      OFFSET 43.5653 0 0
      CHANNELS 3 Zrotation Xrotation Yrotation
      JOINT RightFoot
      {
        OFFSET 40.6238 0 0
        CHANNELS 3 Zrotation Xrotation Yrotation
        JOINT RightToeBase
        {
          OFFSET 12.7242 0 0
          CHANNELS 3 Zrotation Xrotation Yrotation
          End Site
          {
            OFFSET 0 0 0
          }
        }
      }
    }
  }
  JOINT Spine
  {
    OFFSET 0.165834 0.87714 6.61349
    CHANNELS 3 Zrotation Xrotation Yrotation
    JOINT Spine1
    {
      OFFSET 7.38963 1.71661e-005 0
      CHANNELS 3 Zrotation Xrotation Yrotation
      JOINT Spine2
      {
        OFFSET 11.9445 1.14441e-005 0
        CHANNELS 3 Zrotation Xrotation Yrotation
        JOINT Spine3
        {
          OFFSET 14.7254 4.19617e-005 0
          CHANNELS 3 Zrotation Xrotation Yrotation
          JOINT Spine4
          {
            OFFSET 10.9679 0 0
            CHANNELS 3 Zrotation Xrotation Yrotation
            JOINT RightShoulder
            {
              OFFSET 2.46616 -1.6653 3.69651
              CHANNELS 3 Zrotation Xrotation Yrotation
              JOINT RightArm
              {
                OFFSET 13.0012 0 0
                CHANNELS 3 Zrotation Xrotation Yrotation
                JOINT RightForeArm
                {
                  OFFSET 28.7848 1.52588e-005 0
                  CHANNELS 3 Zrotation Xrotation Yrotation
                  JOINT RightHand
                  {
                    OFFSET 26.5688 1.52588e-005 0
                    CHANNELS 3 Zrotation Xrotation Yrotation
                    End Site
                    {
                      OFFSET 0 0 0
                    }
                  }
                }
              }
            }
            JOINT LeftShoulder
            {
              OFFSET 2.38034 -1.29275 -3.7523
              CHANNELS 3 Zrotation Xrotation Yrotation
              JOINT LeftArm
              {
                OFFSET 16.3182 6.10352e-005 0
                CHANNELS 3 Zrotation Xrotation Yrotation
                JOINT LeftForeArm
                {
                  OFFSET 27.0901 0 0
                  CHANNELS 3 Zrotation Xrotation Yrotation
                  JOINT LeftHand
                  {
                    OFFSET 24.5451 1.52588e-005 0
                    CHANNELS 3 Zrotation Xrotation Yrotation
                    End Site
                    {
                      OFFSET 0 0 0
                    }
                  }
                }
              }
            }
            JOINT Neck
            {
              OFFSET 5.0226 -0.0266342 0
              CHANNELS 3 Zrotation Xrotation Yrotation
              JOINT Head
              {
                OFFSET 6.69364 2.86102e-005 0
                CHANNELS 3 Zrotation Xrotation Yrotation
                End Site
                {
                  OFFSET 0 0 0
                }
              }
            }
          }
        }
      }
    }
  }
}
MOTION
Frames:	17
Frame Time:	0.0416667
-279.357 92.969 260.897 83.462 59.9709 96.1553 174.503 8.04284 84.8406 -11.5166 24.2581 7.77142 58.6987 2.60449 7.42659 35.2976 -0.830863 1.67309 173.751 9.25663 87.427 -17.9476 -0.427301 1.95151 55.2666 11.4606 0.0946367 49.4917 -4.79127 3.25061 -2.63827 5.81543 -89.9552 15.2815 -5.19378 0.881829 3.6205 -5.14993 1.11014 -18.9976 -5.21804 -0.724257 1.01506 -5.21804 -0.724267 104.366 -61.007 -79.1635 24.7439 -6.45164 -2.88158 -1.06681 -17.3504 -15.2677 -7.71798 -0.396065 0.846594 -76.4339 -48.8815 99.0421 -35.8749 -0.545615 -15.0707 1.43755 59.2363 -6.22798 13.3182 0.207854 -2.20448 -3.96305 -9.68595 -1.82945 -25.2032 -7.98649 -8.19684 
-279.522 92.9942 260.36 85.4445 59.1529 96.2479 175.106 8.01385 85.9096 -14.7088 23.8616 8.44338 60.7025 3.83098 9.04214 34.2453 -0.618195 0.0550129 173.572 7.0302 88.6265 -15.9359 -1.00503 2.52892 54.5453 10.9779 0.0996357 49.7277 -4.83939 3.28366 -2.52236 5.96692 -90.1273 14.9682 -5.05363 0.49219 3.30691 -5.02706 0.714686 -19.3053 -4.96728 -1.05327 0.707303 -4.9673 -1.05327 104.472 -60.9925 -79.0179 24.8443 -6.36943 -2.84206 -1.03219 -17.2756 -15.1638 -8.14475 -0.367936 0.0666311 -76.5537 -48.9568 98.8559 -35.6292 0.964642 -14.8399 -1.35994 55.9551 -3.90421 18.4024 0.415778 -1.59707 -3.51509 -9.4436 -1.71003 -25.3765 -7.68464 -8.44339 
-279.491 92.989 260.994 83.4429 59.7757 96.3394 174.572 8.21622 84.9306 -11.7405 24.4758 7.75289 58.9143 3.1081 8.85192 34.517 -0.645468 0.0239 173.753 9.12342 87.6724 -17.3938 -0.835382 2.05803 55.3534 10.6423 -1.29258 49.9242 -4.85893 3.50741 -2.60731 5.83246 -89.9771 15.2454 -5.14396 0.828196 3.58422 -5.10251 1.05435 -19.0321 -5.1544 -0.760298 0.980526 -5.15441 -0.760297 104.481 -60.9006 -79.0023 24.8849 -6.1191 -2.77412 -1.16178 -17.3485 -15.2385 -7.88132 -0.313538 -0.576683 -76.5801 -49.2535 98.8088 -35.4525 0.901977 -14.9912 -1.56267 56.6496 -3.59649 18.0844 0.291265 -2.23949 -2.33365 -8.53704 -1.42043 -25.404 -6.79802 -8.33347 
-279.612 93.0007 261.047 83.8124 59.3639 96.4876 174.773 8.47346 85.3117 -12.5839 24.268 7.82853 59.2408 3.24961 8.95841 34.6125 -0.668151 0.200399 173.697 8.48085 88.1521 -16.1785 -1.62253 2.3263 55.123 9.74202 -3.04644 50.2941 -4.90961 3.77863 -2.54374 5.86962 -90.04 15.1669 -5.05055 0.681603 3.50549 -5.01564 0.903771 -19.1075 -5.02128 -0.871766 0.905172 -5.02129 -0.871764 104.518 -60.6475 -78.9426 24.9864 -6.22435 -2.98304 -1.23437 -17.7092 -15.328 -7.66329 -0.359131 0.291792 -76.6495 -49.3553 98.7003 -35.6497 0.218059 -15.2874 -1.38224 58.5328 -3.30345 15.9385 -0.0100482 -3.90402 -0.903576 -6.61461 -0.705491 -25.4834 -4.90686 -8.45045 
-279.803 92.9932 261.142 84.2492 59.1402 96.5063 174.832 8.7887 85.6076 -13.4652 24.1055 7.93987 59.1275 2.85984 8.22047 35.4749 -0.831548 1.38886 173.321 7.6425 88.3986 -14.566 -2.97635 2.96031 54.897 8.56733 -5.65676 50.619 -4.95234 4.02075 -2.50439 5.93264 -90.1146 15.0366 -5.01097 0.516967 3.37512 -4.98336 0.737548 -19.2359 -4.93408 -1.01674 0.776712 -4.93409 -1.01674 104.41 -60.1737 -79.0733 25.2602 -5.7931 -3.31044 -1.20532 -17.5076 -15.0813 -7.34753 -0.278661 -0.819459 -76.7246 -49.92 98.5747 -35.2634 0.195184 -15.5624 -1.40093 58.5685 -3.27932 13.9375 -0.0972419 -4.41674 1.32704 -4.49087 -0.148664 -25.2389 -2.96696 -7.88815 
-279.961 93.1027 261.277 84.7048 58.6644 96.3613 174.991 8.36021 85.8258 -12.8257 24.0508 7.86338 58.9902 3.13764 9.02148 34.6613 -0.684488 0.398687 172.761 6.83053 88.5412 -12.9166 -4.31887 3.70192 54.7601 6.64479 -8.34948 50.1363 -4.79678 4.52431 -2.41562 6.00089 -90.1549 14.8961 -4.85664 0.403619 3.23408 -4.83416 0.617477 -19.3719 -4.7529 -1.07807 0.640759 -4.75289 -1.07807 104.529 -60.1299 -78.9074 25.0917 -6.25211 -3.61056 -1.14106 -17.3585 -15.2243 -7.62828 -0.326112 -0.214466 -77.0257 -50.1215 98.1136 -35.0442 0.517697 -15.8296 -1.60993 57.7284 -3.24688 11.9682 -0.0257789 -3.8642 2.73216 -2.18143 -0.493581 -23.5108 -1.00147 -6.29387 
-280.072 93.0446 261.419 85.3844 58.3493 96.1397 175.259 8.71452 86.133 -14.0531 23.7587 7.87614 59.3614 3.14306 8.81937 35.2182 -0.772718 0.870385 172.629 5.84305 88.9792 -11.281 -5.4142 4.08248 54.4311 5.07596 -11.3957 50.6564 -4.82309 5.25827 -2.35221 6.08436 -90.2069 14.7251 -4.75815 0.274228 3.06283 -4.74144 0.48385 -19.5396 -4.62006 -1.17161 0.473035 -4.62008 -1.17162 104.292 -59.9755 -79.2302 25.3141 -5.78805 -3.83325 -1.05043 -17.196 -14.9993 -7.78224 -0.331465 -0.24251 -77.1076 -50.1427 97.9888 -35.0647 0.667697 -16.1886 -1.56115 57.8736 -3.34867 9.53884 0.00642239 -3.42412 3.74182 0.296178 -0.985913 -21.2208 1.11351 -4.29765 
-280.12 92.9208 261.552 85.5126 58.0338 96.4646 175.503 9.58298 86.5236 -15.9033 23.3923 7.96365 60.367 3.64367 9.06106 34.8504 -0.704411 0.364582 172.857 4.89495 89.661 -9.19909 -6.32646 4.20866 53.7512 3.88575 -14.4554 51.5716 -4.9331 5.87974 -2.2694 6.14281 -90.2865 14.6034 -4.63436 0.0888663 2.9407 -4.62596 0.293187 -19.6572 -4.44638 -1.31088 0.35546 -4.44636 -1.31088 104.346 -59.7795 -79.1478 25.3414 -5.93426 -4.06212 -0.998494 -17.1005 -15.0342 -8.08764 -0.403486 0.665411 -77.2596 -50.5085 97.7552 -34.8109 0.754822 -16.5467 -1.38018 56.8019 -3.67855 6.55105 0.0734 -2.24921 4.91229 2.13828 -1.432 -18.6945 2.67041 -2.28757 
-280.176 92.7984 261.664 85.371 57.5692 96.9211 175.496 10.1718 86.7848 -16.9899 23.4288 8.19489 60.7797 3.89608 9.68444 35.1234 -0.736874 0.412441 172.884 4.3591 90.1933 -7.67542 -7.24719 4.5269 53.828 2.13554 -17.3128 51.2355 -4.79802 6.48422 -2.16567 6.17709 -90.3493 14.5304 -4.46035 -0.0664539 2.86708 -4.45897 0.130315 -19.7251 -4.23379 -1.40634 0.287512 -4.2338 -1.40634 104.529 -59.4673 -78.882 25.6105 -5.66093 -4.39084 -1.03832 -17.4962 -14.7301 -7.9789 -0.388453 0.517832 -77.6147 -50.1867 97.2187 -35.1471 1.1616 -16.6108 -2.3886 53.0275 -2.7879 5.91168 0.0859256 -1.93373 5.63633 4.14759 -1.97667 -17.5819 4.48837 -0.186376 
-280.175 92.6158 261.778 84.4292 57.0524 97.3602 175.244 10.7803 86.4669 -16.9808 23.669 8.2292 60.1935 3.52317 10.3785 37.1218 -1.01068 1.72318 172.495 5.03907 90.0331 -7.62204 -8.67877 5.03703 54.5213 -0.0745055 -20.189 52.0928 -5.14141 5.03622 -2.08001 6.16012 -90.4078 14.5609 -4.31948 -0.202561 2.89716 -4.3242 -0.0119003 -19.6905 -4.05859 -1.49352 0.322171 -4.05856 -1.49352 104.711 -58.8916 -78.6038 25.9164 -5.25532 -4.56243 -1.21238 -17.1844 -15.2457 -8.04613 -0.467456 1.61187 -78.0067 -51.432 96.6295 -34.0324 0.903463 -16.8119 -2.46844 52.901 -2.73547 3.91209 0.046586 -1.89045 6.87829 5.24015 -1.25189 -16.2781 5.22636 1.68169 
-279.949 92.4903 261.952 84.7263 56.5074 97.0655 175.334 10.9248 86.4976 -17.6993 25.056 8.26965 59.4123 3.29877 12.763 39.2289 -1.21407 1.74848 172.4 4.61767 90.2951 -6.82452 -9.87809 5.3435 54.2819 -1.47822 -22.9142 55.5101 -5.92048 4.46912 -1.95205 6.32183 -90.5109 14.2311 -4.11791 -0.455483 2.56668 -4.13398 -0.273503 -20.014 -3.79037 -1.67374 -0.00132121 -3.79036 -1.67374 104.924 -58.2463 -78.2759 26.1005 -4.55087 -5.6004 -1.09915 -16.8812 -14.3322 -7.66426 -0.201101 -2.25637 -78.9368 -52.4081 95.2569 -33.3286 0.448041 -18.0069 -2.91682 53.7639 -1.79206 1.82933 0.00978707 -1.56045 8.81921 6.54 -0.223702 -15.4888 6.19896 2.74306 
-279.462 92.4059 261.969 84.2571 56.1107 97.2671 174.797 11.4287 86.429 -18.4293 21.9527 8.63751 61.2732 4.3089 11.0037 37.0418 -0.969588 1.04864 172.047 4.03593 90.2136 -5.10368 -11.2765 5.97927 53.6892 -2.17444 -24.8757 56.3322 -6.17679 3.96524 -1.84895 6.42413 -90.6153 14.0213 -3.9651 -0.696364 2.35627 -3.9919 -0.520906 -20.2187 -3.57231 -1.85722 -0.206027 -3.57231 -1.85723 104.741 -57.9149 -78.5207 25.5356 -5.48342 -5.71539 -1.40714 -16.2806 -16.0792 -7.27743 -0.348408 0.489094 -79.9028 -53.3117 93.8616 -32.5863 0.478454 -19.2822 -3.09905 52.4101 -1.3348 -1.5044 -0.0491338 1.48042 8.86456 6.90867 -0.965842 -13.796 6.50292 5.81516 
-278.507 92.3238 261.809 85.043 55.7861 96.0996 174.413 10.6599 86.1438 -18.6162 20.2189 8.92689 62.1448 4.8625 10.0594 37.199 -1.01135 1.59099 171.633 3.44662 89.9271 -5.53875 -11.6835 6.25174 54.3036 -3.02632 -25.2174 56.6137 -6.36676 3.18337 -1.73931 6.54912 -90.6877 13.7672 -3.7833 -0.878082 2.10157 -3.81827 -0.710502 -20.4676 -3.34433 -1.9756 -0.454925 -3.34436 -1.9756 105.029 -57.2363 -78.0795 25.5026 -5.40655 -5.80378 -1.58282 -16.0568 -16.7997 -7.29186 -0.426713 1.74985 -80.9612 -54.4944 92.3755 -31.5353 0.949494 -20.3596 -3.82461 50.9059 -0.26649 -2.39747 -0.0921247 3.02028 8.02464 6.87862 -1.68153 -14.5568 6.37665 8.02781 
-277.036 92.0433 261.5 86.4016 54.8557 94.5225 174.073 10.1262 86.2294 -20.3049 19.2564 8.46671 62.347 6.07642 11.6137 40.0294 -1.29078 2.23203 170.625 3.213 89.4194 -7.66123 -14.0177 7.21835 55.5205 -4.21082 -26.149 56.5117 -6.32966 3.24714 -1.55656 6.69319 -90.7794 13.4745 -3.46525 -1.11595 1.80783 -3.511 -0.962206 -20.7524 -2.9696 -2.10647 -0.739762 -2.9696 -2.10648 104.991 -56.5857 -78.1014 25.2499 -4.77705 -5.56903 -0.844465 -15.3854 -15.1376 -9.31783 -0.23326 -2.49438 -81.8577 -55.8294 91.1685 -30.2039 1.21347 -20.6228 -3.36585 49.276 -0.530748 -1.84206 -0.0616762 0.202198 6.70461 5.23062 -2.37291 -15.9361 4.58339 9.9829 
-275.389 91.0862 261.322 86.8522 53.9153 94.8928 171.114 15.4347 87.088 -31.7117 12.6307 8.10786 61.6759 6.89105 10.6789 47.0055 -1.77554 5.62878 170.559 5.42284 90.4386 -14.4106 -15.3186 7.6464 58.9796 -5.64533 -26.1485 54.322 -6.08329 1.66243 -1.19686 6.8723 -90.9355 13.1114 -2.82566 -1.52332 1.44282 -2.88997 -1.39742 -21.1021 -2.2373 -2.30221 -1.0895 -2.23728 -2.30222 105.311 -57.0442 -77.6665 24.6527 -5.08491 -5.22837 -1.52647 -17.0148 -16.301 -9.59918 -0.551615 1.67531 -82.3746 -55.2972 90.3962 -30.2051 1.30315 -21.1449 -1.63468 47.3903 -2.01651 -1.43467 -0.102896 -6.02881 7.64544 1.59957 -4.12789 -19.524 1.04486 10.159 
-273.277 90.3563 261.035 85.5768 52.2354 96.5321 170.533 25.3875 87.976 -47.5302 7.04795 6.95829 60.5265 5.87951 9.49451 49.647 -1.58153 11.2814 171.958 7.78317 92.5148 -20.3086 -13.5869 6.36201 62.4297 -6.01367 -23.2509 52.8858 -5.55569 3.08919 -0.691447 6.90899 -91.0636 13.0366 -1.8836 -1.89618 1.36576 -1.96521 -1.81146 -21.1638 -1.22682 -2.37443 -1.15116 -1.22681 -2.37443 103.518 -58.2999 -80.2616 22.6721 -4.59172 -4.64244 -0.372462 -17.2564 -13.898 -10.387 -0.599302 1.65596 -81.9791 -55.8895 91.0006 -28.8393 2.24015 -21.3886 -0.0242374 47.3706 -4.79958 0.184231 -0.129375 -6.08171 6.07479 0.38946 -3.92687 -17.8813 0.134198 8.19442 
-270.65 90.3011 260.206 82.8837 49.2567 98.381 175.293 32.3956 87.8665 -47.7178 8.99779 3.95359 60.8201 5.13615 7.476 49.6433 -1.75067 8.67391 173.475 9.19115 93.5737 -22.3242 -11.8939 4.85187 64.4065 -4.62763 -17.4657 51.8482 -5.18362 4.25942 -0.0260214 6.81219 -90.8957 13.2425 -0.483501 -1.732 1.57057 -0.559259 -1.70906 -20.9553 0.0593103 -1.79722 -0.94267 0.0592855 -1.79723 104.347 -60.5964 -79.175 21.2563 -3.3183 -6.00359 0.714959 -18.4475 -10.3341 -9.9908 -0.43482 -0.123661 -81.4909 -52.3864 91.48 -30.602 3.65673 -19.581 2.10778 46.7589 -8.04394 0.755791 -0.109269 -5.05661 9.42562 -1.05851 -8.22348 -20.2851 -0.612618 9.79023 
